<svg id="disseny" xmlns="http://www.w3.org/2000/svg" viewBox="0 0 255 50"><rect width="100%" height="100%" fill="white" rx="5" ry="5"/><defs><style>.cls-1{fill:#ff502b;}.cls-2{fill:#f8d300;}.cls-3{fill:#ffa300;}.cls-4{fill:#fb690e;}</style></defs><path d="M83.19,32.55V47.17H77.26L76.2,41.83c-3.23,4.11-7.46,5.64-13.39,5.64-12.57,0-20.91-8.64-20.91-22.08S50.18,3,62.4,3C72.5,3,81.07,7.88,82.25,18.57H73.73C73,14.05,68.74,11,63.28,11c-8.58,0-13.16,5.34-13.16,14.39,0,8.8,5.93,14.09,12.63,14.09,6,0,11.39-3,11.39-8.46H63.63v-7.4H83.19Z"/><path d="M88.3,25.15C88.3,12.64,97,2.54,109.8,2.54s21.49,10.1,21.49,22.61-8.75,22.61-21.49,22.61S88.3,37.66,88.3,25.15Zm34.42,0c0-8-4.7-14.1-12.92-14.1s-13,6.11-13,14.1,4.81,14,13,14S122.72,33.08,122.72,25.15Z"/><path d="M145.86,3.13V39.42h27.06v7.75H137v-44Z"/><path d="M172.92,15V35.05h-8.87V15Z"/><path d="M189.42,38.25l-3.34,8.92H176.5l17.68-44h9.93l17.68,44h-9.58l-3.64-8.92Zm9.75-26.14L192,30.61h14Z"/><path d="M239.82,10.82V47.17h-8.75V10.82H218.56V3.13h33.71v7.69Z"/><circle class="cls-1" cx="168.49" cy="7.02" r="4.78"/><circle class="cls-1" cx="7.59" cy="42.34" r="4.86"/><rect class="cls-2" x="2.73" y="3.15" width="32.96" height="7.12"/><path class="cls-3" d="M35.52,47.2H28.4A25.69,25.69,0,0,0,2.73,21.53V14.41A32.83,32.83,0,0,1,35.52,47.2Z"/><path class="cls-4" d="M2.73,25.69V29.9A17.31,17.31,0,0,1,20,47.2h4.21A21.53,21.53,0,0,0,2.73,25.69Z"/></svg>